<svg width="110" height="109" viewBox="0 0 110 109" fill="none" xmlns="http://www.w3.org/2000/svg">
    <defs>
        <linearGradient id="paint0_linear_3362_5168" x1="55.5" y1="7" x2="55.5" y2="103" gradientUnits="userSpaceOnUse">
            <stop stop-color="#4D4D4D" stop-opacity="0.2" />
            <stop offset="1" stop-color="#4D4D4D" />
        </linearGradient>
        <linearGradient id="paint1_linear_3362_5168" x1="55" y1="0" x2="55" y2="109" gradientUnits="userSpaceOnUse">
            <stop offset="0.0001" stop-color="#470906" />
            <stop offset="1" stop-color="#A70900" />
        </linearGradient>
    </defs>
    <circle cx="55.5" cy="55" r="48" fill="url(#paint0_linear_3362_5168)" />
    <path fill-rule="evenodd" clip-rule="evenodd" d="M30.2863 41.593H76.8222C79.5821 41.593 81.8194 43.8364 81.8194 46.6037V73.9891C81.8194 76.7564 79.5821 78.9998 76.8222 78.9998H30.2863C27.5264 78.9998 25.2891 76.7564 25.2891 73.9891V46.6037C25.2891 43.8364 27.5264 41.593 30.2863 41.593ZM68.1204 60.2948C68.1204 64.878 64.4149 68.5935 59.844 68.5935C55.273 68.5935 51.5676 64.878 51.5676 60.2948C51.5676 55.7115 55.273 51.9961 59.844 51.9961C64.4149 51.9961 68.1204 55.7115 68.1204 60.2948Z" fill="#666666" />
    <path d="M81.5027 41.5931H76.8223C79.58 41.5931 81.8195 43.8353 81.8195 46.6037V73.9892C81.8195 76.7543 79.5832 78.9998 76.8223 78.9998H81.5027C84.2605 78.9998 86.4999 76.7575 86.4999 73.9892V46.6005C86.4999 43.8353 84.2637 41.5898 81.5027 41.5898V41.5931Z" fill="#8B8B8B" />
    <path fill-rule="evenodd" clip-rule="evenodd" d="M74.8034 60.205C74.8034 68.4892 68.1058 75.2049 59.8439 75.2049C51.5819 75.2049 44.8843 68.4892 44.8843 60.205C44.8843 51.9208 51.5819 45.2051 59.8439 45.2051C68.1058 45.2051 74.8034 51.9208 74.8034 60.205ZM68.1203 60.2947C68.1203 64.8779 64.4148 68.5934 59.8439 68.5934C55.273 68.5934 51.5675 64.8779 51.5675 60.2947C51.5675 55.7114 55.273 51.9959 59.8439 51.9959C64.4148 51.9959 68.1203 55.7114 68.1203 60.2947Z" fill="#B7B7B7" />
    <path d="M66.2422 41.593H47.0532L48.4481 38.2601C48.7648 37.503 49.5038 37.0122 50.3196 37.0122H63.1965C64.0603 37.0122 64.8281 37.5608 65.1129 38.3755L66.2358 41.5898L66.2422 41.593Z" fill="#A0A0A0" />
    <path d="M38.8984 45.4778H30.4813C29.9318 45.4778 29.4863 45.9244 29.4863 46.4754V51.4989C29.4863 52.0499 29.9318 52.4966 30.4813 52.4966H38.8984C39.4479 52.4966 39.8934 52.0499 39.8934 51.4989V46.4754C39.8934 45.9244 39.4479 45.4778 38.8984 45.4778Z" fill="#8B8B8B" />
    <path d="M15.5 48.8579H28.4526" stroke="white" stroke-linecap="round" stroke-dasharray="2 2" />
    <path d="M40.5957 48.8579H53.5484" stroke="white" stroke-linecap="round" stroke-dasharray="2 2" />
    <path d="M16.3096 39.1172L27.5269 45.611" stroke="white" stroke-linecap="round" stroke-dasharray="2 2" />
    <path d="M52.6226 39.1172L41.4052 45.611" stroke="white" stroke-linecap="round" stroke-dasharray="2 2" />
    <path d="M23.5952 32.6235L30.0715 43.8711" stroke="white" stroke-linecap="round" stroke-dasharray="2 2" />
    <path d="M45.4531 32.6235L38.9768 43.8711" stroke="white" stroke-linecap="round" stroke-dasharray="2 2" />
    <path d="M34.9292 31L34.9292 43.9876" stroke="white" stroke-linecap="round" stroke-dasharray="2 2" />
    <path fill-rule="evenodd" clip-rule="evenodd" d="M90.8372 17.5142C81.5668 8.52994 68.9292 3 55 3C26.5573 3 3.5 26.0573 3.5 54.5C3.5 68.4292 9.02994 81.0668 18.0142 90.3372L90.8372 17.5142ZM93.8683 16.2965C83.9807 6.23795 70.2188 0 55 0C24.9005 0 0.5 24.4005 0.5 54.5C0.5 69.718 6.73724 83.4791 16.7948 93.3666C16.8381 93.4249 16.8862 93.4807 16.9391 93.5336C17.0014 93.5959 17.0679 93.6516 17.1376 93.7007C26.9423 103.173 40.2906 109 55 109C85.0995 109 109.5 84.5995 109.5 54.5C109.5 39.7898 103.672 26.4408 94.1991 16.6359C94.1503 16.5669 94.0951 16.5011 94.0333 16.4393C93.981 16.387 93.9258 16.3394 93.8683 16.2965ZM92.9303 19.6637L20.1637 92.4303C29.3329 100.856 41.5657 106 55 106C83.4427 106 106.5 82.9427 106.5 54.5C106.5 41.0657 101.356 28.8329 92.9303 19.6637Z" fill="url(#paint1_linear_3362_5168)" />
</svg>